# xmcd CD database file
#
# Track frame offsets:
#	150
#	18488
#	40693
#	58351
#	77584
#	95256
#	112699
#	132615
#	147728
#	167439
#	185880
#	202859
#	221363
#	242422
#	257544
#	272232
#	290592
#	304170
#	317269
#	333429
#
# Disc length: 4643 seconds
#
# Revision: 6
# Processed by: cddbd v1.5.2PL0 Copyright (c) Steve Scherf et al.
# Submitted via: CDex 1.70beta3
#
DISCID=1e122114
DTITLE=Taylor Swift - FEARLESS
DYEAR=2009
DGENRE=Country Pop
TTITLE0=Fearless
TTITLE1=Fifteen
TTITLE2=Love Story
TTITLE3=Hey Stephen
TTITLE4=White Horse
TTITLE5=You Belong With Me
TTITLE6=Breathe (Feat.Colbie Caillat)
TTITLE7=Tell Me Why
TTITLE8=You're Not Sorry
TTITLE9=The Way I Loved You
TTITLE10=Forever and Always
TTITLE11=The Best Day
TTITLE12=Change
TTITLE13=Our Song
TTITLE14=Teardrops On My Guitar
TTITLE15=Should've Said No
TTITLE16=Beautiful Eyes (Bonus Tracks)
TTITLE17=Picture To Burn (Bonus Tracks)
TTITLE18=I'm Only Me When I'm With You (Bonus Tracks)
TTITLE19=I Heart ? (Bonus Tracks)
EXTD=YEAR: 2009
EXTT0=
EXTT1=
EXTT2=
EXTT3=
EXTT4=
EXTT5=
EXTT6=
EXTT7=
EXTT8=
EXTT9=
EXTT10=
EXTT11=
EXTT12=
EXTT13=
EXTT14=
EXTT15=
EXTT16=
EXTT17=
EXTT18=
EXTT19=
PLAYORDER=
